<?xml version="1.0" encoding="UTF-8" standalone="no"?>
<!DOCTYPE svg PUBLIC "-//W3C//DTD SVG 1.1//EN" "http://www.w3.org/Graphics/SVG/1.1/DTD/svg11.dtd">
<!-- Generated by graphviz version 2.40.1 (20161225.0304)
 -->
<!-- Title: G Pages: 1 -->
<svg width="448pt" height="383pt" viewBox="0.00 0.00 448.13 383.40" xmlns="http://www.w3.org/2000/svg" xmlns:xlink="http://www.w3.org/1999/xlink">
<g id="graph0" class="graph" transform="scale(1 1) rotate(0) translate(4 379.4)">
<title>G</title>
<polygon fill="#ffffff" stroke="transparent" points="-4,4 -4,-379.4 444.1338,-379.4 444.1338,4 -4,4"/>
<!-- start -->
<g id="node1" class="node">
<title>start</title>
<polygon fill="#d3d3d3" stroke="#000000" points="202.0024,-375.4 162.765,-357.4 202.0024,-339.4 241.2397,-357.4 202.0024,-375.4"/>
<polyline fill="none" stroke="#000000" points="173.6721,-362.4036 173.6721,-352.3964 "/>
<polyline fill="none" stroke="#000000" points="191.0953,-344.4036 212.9094,-344.4036 "/>
<polyline fill="none" stroke="#000000" points="230.3326,-352.3964 230.3326,-362.4036 "/>
<polyline fill="none" stroke="#000000" points="212.9094,-370.3964 191.0953,-370.3964 "/>
<text text-anchor="middle" x="202.0024" y="-353.2" font-family="Times,serif" font-size="14.00" fill="#000000">start</text>
</g>
<!-- StarvingPod -->
<g id="node2" class="node">
<title>StarvingPod</title>
<ellipse fill="#8dd3c7" stroke="#8dd3c7" cx="202.0024" cy="-284.4" rx="104.1976" ry="18"/>
<text text-anchor="middle" x="202.0024" y="-280.2" font-family="Times,serif" font-size="14.00" fill="#000000">Are there starving pod ?</text>
</g>
<!-- start&#45;&gt;StarvingPod -->
<g id="edge1" class="edge">
<title>start-&gt;StarvingPod</title>
<path fill="none" stroke="#000000" d="M202.0024,-339.3551C202.0024,-331.2828 202.0024,-321.5764 202.0024,-312.5817"/>
<polygon fill="#000000" stroke="#000000" points="205.5025,-312.4903 202.0024,-302.4904 198.5025,-312.4904 205.5025,-312.4903"/>
</g>
<!-- StableNodepool -->
<g id="node3" class="node">
<title>StableNodepool</title>
<ellipse fill="#ffffb3" stroke="#ffffb3" cx="88.0024" cy="-195.6" rx="88.0047" ry="18"/>
<text text-anchor="middle" x="88.0024" y="-191.4" font-family="Times,serif" font-size="14.00" fill="#000000">Is nodepool stable ?</text>
</g>
<!-- StarvingPod&#45;&gt;StableNodepool -->
<g id="edge2" class="edge">
<title>StarvingPod-&gt;StableNodepool</title>
<path fill="none" stroke="#000000" d="M179.2067,-266.6434C161.7737,-253.064 137.5669,-234.2082 118.4725,-219.3346"/>
<polygon fill="#000000" stroke="#000000" points="120.4098,-216.4072 110.37,-213.0232 116.1082,-221.9296 120.4098,-216.4072"/>
<text text-anchor="middle" x="165.332" y="-235.8" font-family="Times,serif" font-size="14.00" fill="#000000">yes</text>
</g>
<!-- FreeNode -->
<g id="node5" class="node">
<title>FreeNode</title>
<ellipse fill="#fb8072" stroke="#fb8072" cx="317.0024" cy="-195.6" rx="123.263" ry="18"/>
<text text-anchor="middle" x="317.0024" y="-191.4" font-family="Times,serif" font-size="14.00" fill="#000000">Is there a node without pod ?</text>
</g>
<!-- StarvingPod&#45;&gt;FreeNode -->
<g id="edge4" class="edge">
<title>StarvingPod-&gt;FreeNode</title>
<path fill="none" stroke="#000000" d="M224.9979,-266.6434C242.4697,-253.1522 266.6862,-234.4528 285.8891,-219.6249"/>
<polygon fill="#000000" stroke="#000000" points="288.2708,-222.2078 294.0466,-213.3258 283.9925,-216.6673 288.2708,-222.2078"/>
<text text-anchor="middle" x="276.0024" y="-235.8" font-family="Times,serif" font-size="14.00" fill="#000000">no</text>
</g>
<!-- ScaleNodePoolInc -->
<g id="node4" class="node">
<title>ScaleNodePoolInc</title>
<polygon fill="#bebada" stroke="#bebada" points="88.0024,-124.8 8.8445,-106.8 88.0024,-88.8 167.1602,-106.8 88.0024,-124.8"/>
<polyline fill="none" stroke="#bebada" points="20.5458,-109.4608 20.5458,-104.1392 "/>
<polyline fill="none" stroke="#bebada" points="76.3011,-91.4608 99.7036,-91.4608 "/>
<polyline fill="none" stroke="#bebada" points="155.4589,-104.1392 155.4589,-109.4608 "/>
<polyline fill="none" stroke="#bebada" points="99.7036,-122.1392 76.3011,-122.1392 "/>
<text text-anchor="middle" x="88.0024" y="-102.6" font-family="Times,serif" font-size="14.00" fill="#000000">Add 1 node</text>
</g>
<!-- StableNodepool&#45;&gt;ScaleNodePoolInc -->
<g id="edge3" class="edge">
<title>StableNodepool-&gt;ScaleNodePoolInc</title>
<path fill="none" stroke="#000000" d="M88.0024,-177.2006C88.0024,-165.0949 88.0024,-149.0076 88.0024,-135.2674"/>
<polygon fill="#000000" stroke="#000000" points="91.5025,-134.872 88.0024,-124.872 84.5025,-134.8721 91.5025,-134.872"/>
<text text-anchor="middle" x="97.332" y="-147" font-family="Times,serif" font-size="14.00" fill="#000000">yes</text>
</g>
<!-- StableNodepool2 -->
<g id="node6" class="node">
<title>StableNodepool2</title>
<ellipse fill="#80b1d3" stroke="#80b1d3" cx="317.0024" cy="-106.8" rx="88.0047" ry="18"/>
<text text-anchor="middle" x="317.0024" y="-102.6" font-family="Times,serif" font-size="14.00" fill="#000000">Is nodepool stable ?</text>
</g>
<!-- FreeNode&#45;&gt;StableNodepool2 -->
<g id="edge5" class="edge">
<title>FreeNode-&gt;StableNodepool2</title>
<path fill="none" stroke="#000000" d="M317.0024,-177.2006C317.0024,-165.0949 317.0024,-149.0076 317.0024,-135.2674"/>
<polygon fill="#000000" stroke="#000000" points="320.5025,-134.872 317.0024,-124.872 313.5025,-134.8721 320.5025,-134.872"/>
<text text-anchor="middle" x="326.332" y="-147" font-family="Times,serif" font-size="14.00" fill="#000000">yes</text>
</g>
<!-- ScaleNodePoolDec -->
<g id="node7" class="node">
<title>ScaleNodePoolDec</title>
<polygon fill="#fdb462" stroke="#fdb462" points="317.0024,-36 215.85,-18 317.0024,0 418.1547,-18 317.0024,-36"/>
<polyline fill="none" stroke="#fdb462" points="227.6644,-20.1024 227.6644,-15.8976 "/>
<polyline fill="none" stroke="#fdb462" points="305.188,-2.1024 328.8168,-2.1024 "/>
<polyline fill="none" stroke="#fdb462" points="406.3403,-15.8976 406.3403,-20.1024 "/>
<polyline fill="none" stroke="#fdb462" points="328.8168,-33.8976 305.188,-33.8976 "/>
<text text-anchor="middle" x="317.0024" y="-13.8" font-family="Times,serif" font-size="14.00" fill="#000000">Remove 1 node</text>
</g>
<!-- StableNodepool2&#45;&gt;ScaleNodePoolDec -->
<g id="edge6" class="edge">
<title>StableNodepool2-&gt;ScaleNodePoolDec</title>
<path fill="none" stroke="#000000" d="M317.0024,-88.4006C317.0024,-76.2949 317.0024,-60.2076 317.0024,-46.4674"/>
<polygon fill="#000000" stroke="#000000" points="320.5025,-46.072 317.0024,-36.072 313.5025,-46.0721 320.5025,-46.072"/>
<text text-anchor="middle" x="326.332" y="-58.2" font-family="Times,serif" font-size="14.00" fill="#000000">yes</text>
</g>
</g>
</svg>